<?xml version="1.0" encoding="utf-8"?>
<!-- Generator: Adobe Illustrator 21.0.2, SVG Export Plug-In . SVG Version: 6.00 Build 0)  -->
<svg version="1.1" id="Layer_1" xmlns="http://www.w3.org/2000/svg" xmlns:xlink="http://www.w3.org/1999/xlink" x="0px" y="0px"
	 viewBox="0 0 92 92" style="enable-background:new 0 0 92 92;" xml:space="preserve">
<style type="text/css">
	.st0{fill:#FDE8E8;}
	.st1{fill:#EA7373;}
</style>
<circle class="st0" cx="46" cy="46" r="46"/>
<path id="Path_200" class="st1" d="M61.8,32.4c0,1.2-0.9,2.1-2.1,2.1c-1.2,0-2.1-0.9-2.1-2.1c0-1.2,0.9-2.1,2.1-2.1
	C60.8,30.3,61.8,31.3,61.8,32.4C61.8,32.4,61.8,32.4,61.8,32.4z M71.7,21.5l-3.9,3.9c0,0.1,0.1,0.3,0.1,0.4l0.1,22.6
	c0,0.4-0.2,0.8-0.5,1.1l-23,23c-0.6,0.6-1.7,0.6-2.3,0L19.6,49.8c-0.6-0.6-0.6-1.7,0-2.3c0,0,0,0,0,0l23-23c0.3-0.3,0.7-0.5,1.1-0.5
	l22.6,0.1c0.1,0,0.3,0,0.4,0.1l3.9-3.9c0.3-0.3,0.8-0.3,1.1,0C72,20.7,72,21.2,71.7,21.5L71.7,21.5L71.7,21.5z M64.8,47.7l-0.1-20.3
	l-20.3-0.1L23,48.6l20.4,20.4L64.8,47.7z M47.3,46.5l4-4c0.5-0.5,0.5-1.3,0-1.8c-0.5-0.5-1.3-0.5-1.8,0l0,0l-4,4l-4-4
	c-0.5-0.5-1.3-0.5-1.8,0c-0.5,0.5-0.5,1.3,0,1.8l4,4l-4,4c-0.5,0.5-0.5,1.3,0,1.8c0.5,0.5,1.3,0.5,1.8,0l0,0l4-4l4,4
	c0.5,0.5,1.3,0.5,1.8-0.1c0.5-0.5,0.5-1.3,0-1.8L47.3,46.5z"/>
</svg>
