<svg id="Layer_1" data-name="Layer 1" xmlns="http://www.w3.org/2000/svg" viewBox="0 0 92 92"><defs><style>.cls-1{fill:#fff;}.cls-2{fill:none;stroke:#fff;stroke-width:0.5px;}</style></defs><title>Inprogess for dark background</title><path id="Path_1" data-name="Path 1" class="cls-1" d="M86,54.41l-18.85-6A3.29,3.29,0,0,0,63,50.59l0,.06c-.08.29-.18.59-.29.89a3.29,3.29,0,0,0,2,4.18l.08,0,18.85,5.94a3.25,3.25,0,0,0,4.11-2.06l.35-1.1A3.29,3.29,0,0,0,86,54.41Z"/><path id="Path_2" data-name="Path 2" class="cls-2" d="M65.56,41.54a3.46,3.46,0,0,1-3.21-2.19L62.21,39A1.2,1.2,0,0,0,62,38.5,3.41,3.41,0,0,1,63.75,34l.1,0,18.26-7.58a3.46,3.46,0,0,1,4.46,1.82l.45,1.1a3.42,3.42,0,0,1-1.87,4.38l-18.29,7.6a3.38,3.38,0,0,1-1.31.26ZM83.39,26.4a3.29,3.29,0,0,0-1.2.23L64,34.13a3.17,3.17,0,0,0-1.7,4.15v0a4.73,4.73,0,0,1,.19.47l.15.41a3.15,3.15,0,0,0,4,1.88l.12,0L85,33.46a3.17,3.17,0,0,0,1.73-4.07c-.14-.37-.29-.74-.45-1.1A3.17,3.17,0,0,0,83.39,26.4Z"/><path id="Path_3" data-name="Path 3" class="cls-1" d="M11,18.29l-.11.13c-.18.22-.34.44-.5.67l-.1.13a3.29,3.29,0,0,0,.59,4.58L26.52,35.86a3.29,3.29,0,0,0,4.61-.6V35.2c.08-.1.14-.21.29-.39h0l.26-.31h0a3.29,3.29,0,0,0-.32-4.64l-.12-.1L15.59,17.7a3.29,3.29,0,0,0-4.61.59Z"/><path id="Path_4" data-name="Path 4" class="cls-1" d="M36.75,2.35H36.6c-.34.07-.68.13-1,.22a3.29,3.29,0,0,0-2.46,3.9L37.4,25.77a3.29,3.29,0,0,0,3.92,2.5l.08,0,.91-.19a3.29,3.29,0,0,0,2-1.23l.14-.2a3.29,3.29,0,0,0,.46-2.51L40.63,4.82A3.29,3.29,0,0,0,36.75,2.35Z"/><path id="Path_5" data-name="Path 5" class="cls-1" d="M58.27,60.13a3.29,3.29,0,0,0-2.51.48c-.25.18-.52.34-.78.5a3.28,3.28,0,0,0-1.14,4.49l.06.09L64.51,82.38a3.29,3.29,0,0,0,4.51,1l1-.64a3.29,3.29,0,0,0,1-4.52L60.38,61.53A3.29,3.29,0,0,0,58.27,60.13Z"/><path id="Path_6" data-name="Path 6" class="cls-1" d="M66.77,6.73l-1.1-.55A3.29,3.29,0,0,0,61.29,7.6L52.16,25.14a3.29,3.29,0,0,0,1.42,4.43h0l.46.25.34.2a3.29,3.29,0,0,0,4.21-.86,4.47,4.47,0,0,0,.31-.48l9.17-17.56A3.29,3.29,0,0,0,66.77,6.73Z"/><path id="Path_7" data-name="Path 7" class="cls-1" d="M43.83,63.56h-.35a5,5,0,0,1-.58-.07,3.29,3.29,0,0,0-3.76,2.74v.09L36.54,85.86a3.29,3.29,0,0,0,2.81,3.68l1.17.15a3.27,3.27,0,0,0,3.64-2.84l2.59-19.6a3.34,3.34,0,0,0-2.93-3.7Z"/><path id="Path_8" data-name="Path 8" class="cls-1" d="M29.86,56.38a3.29,3.29,0,0,0-2.4.86L12.9,70.56a3.38,3.38,0,0,0-.15,4.7c.24.26.47.54.72.79a3.29,3.29,0,0,0,4.61.16L32.66,62.88a2.31,2.31,0,0,0,.38-.42,3.26,3.26,0,0,0-.26-4.29l-.25-.26-.39-.41A3.29,3.29,0,0,0,29.86,56.38Z"/><path id="Path_9" data-name="Path 9" class="cls-1" d="M24.35,42.8l-19.73.86a3.29,3.29,0,0,0-3.14,3.39v1.18a3.29,3.29,0,0,0,3.43,3.09l19.73-.84A3.29,3.29,0,0,0,27,49.39l.15-.19A3.22,3.22,0,0,0,27.77,47v-.92a3.29,3.29,0,0,0-3.29-3.29h-.14Z"/></svg>