<?xml version="1.0" encoding="utf-8"?>
<!-- Generator: Adobe Illustrator 21.0.2, SVG Export Plug-In . SVG Version: 6.00 Build 0)  -->
<svg version="1.1" id="Layer_1" xmlns="http://www.w3.org/2000/svg" xmlns:xlink="http://www.w3.org/1999/xlink" x="0px" y="0px"
	 viewBox="0 0 92 92" style="enable-background:new 0 0 92 92;" xml:space="preserve">
<style type="text/css">
	.st0{fill:#91A6CC;}
	.st1{fill:#010101;}
</style>
<circle class="st0" cx="46" cy="46" r="45.9"/>
<title>Night deliveries</title>
<g id="Night_Deliveries">
	<g id="Group_49">
		<path id="Path_217" class="st1" d="M46.3,19.3c0.8-0.2,1.6,0.3,1.8,1.1c0.1,0.5,0,1-0.4,1.3c-9.1,9.7-8.7,25,1.1,34.2
			c5.9,5.6,14.2,7.8,22.1,5.9c0.8-0.2,1.6,0.3,1.8,1.1c0.1,0.5,0,1-0.4,1.3C62,75.2,44.8,75.7,33.9,65.4S22.5,38,32.7,27.1
			C36.4,23.2,41.1,20.5,46.3,19.3L46.3,19.3z M40.4,24.7c-11.6,6.7-15.5,21.5-8.8,33s21.5,15.5,33,8.8l0,0c0.7-0.4,1.3-0.8,1.9-1.2
			c-15,0.6-27.6-11-28.3-26c-0.2-5.5,1.2-11,4.2-15.7C41.7,24,41.1,24.4,40.4,24.7z"/>
	</g>
</g>
</svg>
