<?xml version="1.0" encoding="utf-8"?>
<!-- Generator: Adobe Illustrator 21.0.2, SVG Export Plug-In . SVG Version: 6.00 Build 0)  -->
<svg version="1.1" id="Layer_1" xmlns="http://www.w3.org/2000/svg" xmlns:xlink="http://www.w3.org/1999/xlink" x="0px" y="0px"
	 viewBox="0 0 92 92" style="enable-background:new 0 0 92 92;" xml:space="preserve">
<style type="text/css">
	.st0{fill:#FFD1F1;}
	.st1{fill:none;stroke:#010101;stroke-width:2;}
</style>
<circle class="st0" cx="46" cy="46" r="46"/>
<title>Total Deliveries</title>
<g id="Group_41">
	<path class="st1" d="M45,11.1c-2.8,0-5.1,2.3-5.1,5.1s2.3,5.1,5.1,5.1s5.1-2.3,5.1-5.1l0,0l0,0C50.1,13.4,47.8,11.1,45,11.1z"/>
	<path class="st1" d="M28.6,31.2l13.3-7.7l0.1-0.1c0.1-0.1,0.2-0.1,0.3-0.1c0.2-0.1,0.4-0.1,0.5-0.2l0.4-0.1h0.2
		c0.2,0,0.4-0.1,0.6-0.1c2.6,0.1,4.8,2.1,5.1,4.8l0.7,3.5c8.3,0.7,11.3,9.9,12.3,15.4c0.6,3.1,1.2,7.2,1.8,10.9
		c0.5,3.2,0.9,6,1.2,7.2c0.3,1.1,0.1,2.4-0.5,3.3c-0.9,0.9-2.1,1.3-3.3,1.2H49.2v9.3c-0.1,2.7-2.4,4.8-5.1,4.7
		c-2.5-0.1-4.6-2.1-4.7-4.7v-9.3h-3.3c-1.3,0.1-2.5-0.3-3.4-1.3c-0.7-1-0.9-2.2-0.5-3.3c0.2-1.2,0.7-4,1.2-7.2c0.5-3,1-6.4,1.5-9.2
		l-7.7-11.9C26.1,34.6,26.8,32.3,28.6,31.2L28.6,31.2z"/>
	<path class="st1" d="M40.6,36.4l-0.1,0.1c-1.1,1.5-2,3.2-2.6,4.9l-0.5,1.2l-3.4-7l6.6-3.8V36.4z"/>
</g>
</svg>
