<?xml version="1.0" encoding="utf-8"?>
<!-- Generator: Adobe Illustrator 21.0.2, SVG Export Plug-In . SVG Version: 6.00 Build 0)  -->
<svg version="1.1" id="Layer_1" xmlns="http://www.w3.org/2000/svg" xmlns:xlink="http://www.w3.org/1999/xlink" x="0px" y="0px"
	 viewBox="0 0 92 92" style="enable-background:new 0 0 92 92;" xml:space="preserve">
<style type="text/css">
	.st0{fill:#DDD9F3;}
	.st1{fill:none;stroke:#010101;stroke-width:2;}
</style>
<circle class="st0" cx="46" cy="46" r="45.9"/>
<title>Vaccum delivery</title>
<g id="Vaccum_deliveried">
	<path id="Path_179" class="st1" d="M63.1,74l2.2-1.2c0.9-0.5,1.1-1.7,0.3-3.1l-7.7-14.5l2.2-1.2c5.3-2.8,6.4-10.7,3.1-18.4
		c2.3-2.7,2.3-7.6-0.1-12.1l-1.8-3.4c-0.7-1.4-1.8-1.9-2.7-1.4L16.8,40.9c-0.9,0.5-1.1,1.7-0.3,3.1l1.8,3.4c2.4,4.5,6.6,7.2,10,6.9
		c4.5,6.9,11.9,10.5,17,7.8l2.2-1.2L55,75.3c0.7,1.4,1.8,1.9,2.7,1.4L63.1,74z M50.6,59.1l4.5-2.4l6.5,12.2l-4.5,2.4L50.6,59.1z"/>
	<path id="Path_191" class="st1" d="M28.6,54.3l34.8-18.9"/>
</g>
</svg>
