<?xml version="1.0" encoding="utf-8"?>
<!-- Generator: Adobe Illustrator 21.0.2, SVG Export Plug-In . SVG Version: 6.00 Build 0)  -->
<svg version="1.1" id="Layer_1" xmlns="http://www.w3.org/2000/svg" xmlns:xlink="http://www.w3.org/1999/xlink" x="0px" y="0px"
	 viewBox="0 0 92 92" style="enable-background:new 0 0 92 92;" xml:space="preserve">
<style type="text/css">
	.st0{fill:#E9FEE8;}
	.st1{fill:#010101;}
</style>
<circle class="st0" cx="46.1" cy="46.1" r="45.9"/>
<title>C-section</title>
<path id="Path_178" class="st1" d="M76,32.5c-2.5-3-7.9-3-12.1,0c-3.4,2.4-5,6-4.1,8.9l-21,12.2l-1.9-1.2L15.8,69l0.6,0.8l45.6-25.5
	c2.8,1.8,7.2,1.4,10.9-1.1C77.1,40.2,78.5,35.4,76,32.5z M36.8,57.1c-0.8,0-1.4-0.6-1.4-1.4c0-0.8,0.6-1.4,1.4-1.4
	c0.8,0,1.4,0.6,1.4,1.4l0,0C38.3,56.4,37.6,57.1,36.8,57.1z M70.9,40.7c-2.3,1.6-5.2,1.6-6.5,0c-1.3-1.6-0.6-4.2,1.7-5.8
	s5.2-1.6,6.5,0C73.8,36.5,73.1,39.1,70.9,40.7z M39,52.8l2.1-1.3l10.6-18.3c2.9,0.9,6.5-0.7,8.9-4.1c2.9-4.2,2.9-9.6,0-12.1
	c-2.9-2.5-7.7-1.1-10.7,3.1c-2.5,3.6-2.9,8.1-1.1,10.9L37.2,51.7L39,52.8z M52.3,22.1c1.6-2.3,4.2-3,5.8-1.7s1.6,4.3,0,6.6
	c-1.6,2.3-4.2,3-5.8,1.7C50.7,27.3,50.7,24.4,52.3,22.1z M31.2,62.5l7.8-4.4l-15,19.2l-0.7-0.6L31.2,62.5z"/>
</svg>
