<?xml version="1.0" encoding="utf-8"?>
<!-- Generator: Adobe Illustrator 21.0.2, SVG Export Plug-In . SVG Version: 6.00 Build 0)  -->
<svg version="1.1" id="Layer_1" xmlns="http://www.w3.org/2000/svg" xmlns:xlink="http://www.w3.org/1999/xlink" x="0px" y="0px"
	 viewBox="0 0 92 92" style="enable-background:new 0 0 92 92;" xml:space="preserve">
<style type="text/css">
	.st0{fill:#A5D2CA;}
	.st1{fill:none;stroke:#010101;stroke-width:1.5;}
</style>
<circle class="st0" cx="46" cy="46" r="45.9"/>
<title>Normal Deliveries</title>
<path id="Path_192" class="st1" d="M54.9,61.4c0.1,0.6,0.1,1.1-0.1,1.7c-0.5,1.8-2.3,2.9-4.1,2.4c-0.6-0.2-1.1-0.5-1.5-0.9l-6.7-6.5
	l-0.9,2l6.7,6.5c1.9,1.8,4.9,1.9,6.9,0.1c0.8-0.8,1.4-1.8,1.7-2.9l13-0.8c2,0.1,3.6,1.7,3.8,3.7c0.1,1.9-1.3,3.6-3.3,3.7
	c-0.2,0-0.3,0-0.5,0H46.6c-1.3-0.1-2.6-0.5-3.7-1.4L28,57.8l-15.6,0V45.5l24.2,0c1,0,2.1,0.3,3,0.8c0.8,0.5,1.5,1,2.1,1.6l12.2,11.8
	C54.4,60.2,54.7,60.8,54.9,61.4z"/>
<circle id="Ellipse_40" class="st1" cx="40.8" cy="31.8" r="7.4"/>
<path id="Path_193" class="st1" d="M78.3,42.4l-11.1-3c-0.7-0.2-1.5-0.3-2.2-0.1c-1.3,0.4-2.2,1.5-2.3,2.9c-0.2,1-0.4,2.1-0.6,3.1
	l-6.6-6.6l0,0c1.2-1.2,4.4-4.3,5.6-5.5c1.2-1.1,1.2-2.9,0.1-4.1c-0.1-0.1-0.2-0.2-0.3-0.3l-5.2-5.1c-2.8-2.8-7.1,1.5-4.3,4.3
	l3.2,3.2c-2.6,2.6-5.9,5.8-8,7.9c-0.3,0.3-0.6,0.7-0.8,1.1c-1.3,2.4-0.8,5.3,1,7.2l10.5,10.5c2.4,2.3,6.2,2.3,8.6,0
	c1.1-1.2,1.7-2.7,1.9-4.3c0.5-2.4,1-4.8,1.5-7.2l7.5,2C80.5,49.2,82.1,43.4,78.3,42.4z"/>
</svg>
