<svg id="Layer_1" data-name="Layer 1" xmlns="http://www.w3.org/2000/svg" viewBox="0 0 92 92"><defs><style>.cls-1{fill:#fff;}.cls-2{fill:#1d1d1b;}</style></defs><title>Reports for white background copy</title><polygon class="cls-1" points="57.66 13.16 57.66 10.85 56 10.74 53.57 10.96 50.13 9.63 50.13 6.98 47.14 4.1 42.71 3.52 40.28 5.2 39.06 10.74 32.51 10.74 32.51 12.96 32.51 13.16 15.24 13.16 15.24 89.68 74.93 89.68 74.93 13.16 57.66 13.16"/><g id="Group_79" data-name="Group 79"><path id="Path_10" data-name="Path 10" class="cls-2" d="M45.93,70.38h14a1.13,1.13,0,1,0,0-2.25h-14a1.07,1.07,0,0,0-1.14,1,1.05,1.05,0,0,0,0,.13A1.13,1.13,0,0,0,45.93,70.38Z"/><path id="Path_11" data-name="Path 11" class="cls-2" d="M45.93,57.22h14a1.13,1.13,0,1,0,0-2.25h-14a1.07,1.07,0,0,0-1.14,1,1.05,1.05,0,0,0,0,.13A1.13,1.13,0,0,0,45.93,57.22Z"/><path id="Path_12" data-name="Path 12" class="cls-2" d="M45.93,44.17h14a1.13,1.13,0,1,0,0-2.25h-14a1.07,1.07,0,0,0-1.14,1,1.05,1.05,0,0,0,0,.13A1.13,1.13,0,0,0,45.93,44.17Z"/><path id="Path_13" data-name="Path 13" class="cls-2" d="M45.93,31h14a1.13,1.13,0,1,0,0-2.25h-14a1.07,1.07,0,0,0-1.14,1,1.05,1.05,0,0,0,0,.13A1.13,1.13,0,0,0,45.93,31Z"/><path id="Path_14" data-name="Path 14" class="cls-2" d="M15.18,91H75.3a1.06,1.06,0,0,0,1.12-1,1,1,0,0,0,0-.11V13.31a1.06,1.06,0,0,0-1-1.11H59.23V10a1.06,1.06,0,0,0-1-1.11H51.71V8.29a6.52,6.52,0,0,0-13,0v.56H32.26a1.06,1.06,0,0,0-1.12,1,1,1,0,0,0,0,.11V12.2h-16a1.06,1.06,0,0,0-1.12,1,1,1,0,0,0,0,.11V89.89A1.06,1.06,0,0,0,15,91ZM33.38,11.07h6.41a1.06,1.06,0,0,0,1.12-1,1,1,0,0,0,0-.11V8.27a4.27,4.27,0,0,1,8.54-.22q0,.11,0,.22V10a1.06,1.06,0,0,0,1,1.11H57v5.49H33.37ZM32.26,18.8H58a1.06,1.06,0,0,0,1.12-1,1,1,0,0,0,0-.11V14.43h7.42v64.7H23.72V14.43h7.42v3.25a1.12,1.12,0,0,0,1.12,1.12Zm-16-4.37h5.28V80.26a1.06,1.06,0,0,0,1,1.11H67.77a1.06,1.06,0,0,0,1.12-1,1,1,0,0,0,0-.11V14.43h5.28V88.77H16.3Z"/><path id="Path_15" data-name="Path 15" class="cls-2" d="M29.88,26.73a1.08,1.08,0,0,0,0,1.54l0,0,1.59,1.57-1.59,1.57a1.08,1.08,0,0,0,0,1.54l0,0a1.11,1.11,0,0,0,1.56,0l0,0,1.59-1.57L34.66,33a1.11,1.11,0,0,0,1.56,0l0,0a1.08,1.08,0,0,0,0-1.54l0,0-1.59-1.57,1.59-1.57a1.1,1.1,0,0,0,0-1.57,1.14,1.14,0,0,0-1.59,0l-1.59,1.57-1.59-1.57a1.11,1.11,0,0,0-1.56,0Z"/><path id="Path_16" data-name="Path 16" class="cls-2" d="M31.24,42.6a1.14,1.14,0,0,0-1.59,0,1.1,1.1,0,0,0,0,1.57l2.16,2.14a1.11,1.11,0,0,0,1.56,0l0,0,4.89-4.84a1.1,1.1,0,0,0,0-1.57,1.14,1.14,0,0,0-1.59,0l-4.1,4Z"/><path id="Path_17" data-name="Path 17" class="cls-2" d="M36.59,52.95l-4.1,4-1.25-1.35a1.14,1.14,0,0,0-1.59,0,1.1,1.1,0,0,0,0,1.57l2.16,2.14a1.11,1.11,0,0,0,1.56,0l0,0,4.9-4.84a1.08,1.08,0,0,0,0-1.54l0,0A1.25,1.25,0,0,0,36.59,52.95Z"/><path id="Path_18" data-name="Path 18" class="cls-2" d="M36.59,66l-4.1,4L31.13,68.7a1.14,1.14,0,0,0-1.59,0,1.1,1.1,0,0,0,0,1.57l2.16,2.14a1.11,1.11,0,0,0,1.56,0l0,0,4.89-4.84a1.08,1.08,0,0,0,0-1.54l0,0A1.22,1.22,0,0,0,36.59,66Z"/></g></svg>